<?xml version="1.0" encoding="utf-8"?>
<!-- Svg Vector Icons : http://www.onlinewebfonts.com/icon -->
<!DOCTYPE svg PUBLIC "-//W3C//DTD SVG 1.1//EN" "http://www.w3.org/Graphics/SVG/1.1/DTD/svg11.dtd">
<svg version="1.1" xmlns="http://www.w3.org/2000/svg" xmlns:xlink="http://www.w3.org/1999/xlink" x="0px" y="0px" viewBox="0 0 256 256" enable-background="new 0 0 256 256" xml:space="preserve">
<metadata> Svg Vector Icons : http://www.onlinewebfonts.com/icon </metadata>
<g><g><path fill="#000000" d="M128,66.9c-32.9,0-59.7,26.8-59.7,59.7c0,32.9,26.8,59.7,59.7,59.7c33,0,59.7-26.8,59.7-59.7C187.7,93.6,160.9,66.9,128,66.9z"/><path fill="#000000" d="M128,53.6c-40.3,0-73,32.8-73,73c0,40.3,32.8,73,73,73c40.3,0,73-32.8,73-73C201,86.4,168.3,53.6,128,53.6z M128,186.3c-32.9,0-59.7-26.8-59.7-59.7c0-32.9,26.8-59.7,59.7-59.7c32.9,0,59.7,26.8,59.7,59.7C187.7,159.6,160.9,186.3,128,186.3z"/><path fill="#000000" d="M10,128c0,8.1,6.6,14.8,14.8,14.8c8.2,0,14.8-6.6,14.8-14.8c0-8.2-6.6-14.8-14.8-14.8C16.6,113.2,10,119.8,10,128z"/><path fill="#000000" d="M39.5,54.2c0,8.1,6.6,14.8,14.8,14.8C62.4,69,69,62.4,69,54.2s-6.6-14.8-14.8-14.8C46.1,39.5,39.5,46.1,39.5,54.2z"/><path fill="#000000" d="M39.5,201.7c0,8.1,6.6,14.8,14.8,14.8c8.2,0,14.8-6.6,14.8-14.8S62.4,187,54.3,187S39.5,193.6,39.5,201.7z"/><path fill="#000000" d="M113.3,231.2c0,8.1,6.6,14.8,14.8,14.8c8.1,0,14.8-6.6,14.8-14.8s-6.6-14.8-14.8-14.8S113.3,223.1,113.3,231.2z"/><path fill="#000000" d="M187,201.7c0,8.1,6.6,14.8,14.8,14.8c8.1,0,14.8-6.6,14.8-14.8s-6.6-14.8-14.8-14.8C193.6,187,187,193.6,187,201.7z"/><path fill="#000000" d="M216.5,128c0,8.1,6.6,14.8,14.8,14.8S246,136.1,246,128s-6.6-14.8-14.8-14.8S216.5,119.8,216.5,128z"/><path fill="#000000" d="M187,54.2c0,8.1,6.6,14.8,14.8,14.8c8.1,0,14.8-6.6,14.8-14.8s-6.6-14.8-14.8-14.8S187,46.1,187,54.2z"/><path fill="#000000" d="M113.3,24.7c0,8.1,6.6,14.8,14.8,14.8c8.1,0,14.8-6.6,14.8-14.8S136.1,10,128,10C119.9,10,113.3,16.6,113.3,24.7z"/></g></g>
</svg>